{"title":"The Barlow House.2015.WEBDL.RR.mp4","uid":14506603,"size":2041468766,"categoryP":"video","categoryS":"movies","magnet":"?xt=urn:btih:e534e86e54b710c01088886a09bd895cb392b8c7&amp;dn=The+Barlow+House.2015.WEBDL.RR.mp4&amp;tr=udp%3A%2F%2Ftracker.leechers-paradise.org%3A6969&amp;tr=udp%3A%2F%2Fzer0day.ch%3A1337&amp;tr=udp%3A%2F%2Fopen.demonii.com%3A1337&amp;tr=udp%3A%2F%2Ftracker.coppersurfer.tk%3A6969&amp;tr=udp%3A%2F%2Fexodus.desync.com%3A6969","seeders":0,"leechers":1,"uploader":"RadioResearch","files":1,"time":1462234457,"description":"A married couple buy their dream house, or so they thought. A powerful spirit force, foreign even to the paranormal experts that are hired, turns this dream into a nightmare in a hurry. \r\n\r\n\r\nScreencaps: http://i.imgur.com/wTdW0LM.jpg\r\n\r\nEnjoy, and support Indie horror!\r\n\r\nRR\r\n\r\nVideo\r\nID                                       : 1\r\nFormat                                   : AVC\r\nFormat/Info                              : Advanced Video Codec\r\nFormat profile                           :   \r\nFormat settings, CABAC                   : Yes\r\nFormat settings, ReFrames                : 8 frames\r\nCodec ID                                 : avc1\r\nCodec ID/Info                            : Advanced Video Coding\r\nDuration                                 : 1h 30mn\r\nBit rate                                 : 2 885 Kbps\r\nMaximum bit rate                         : 21.1 Mbps\r\nWidth                                    : 1 280 pixels\r\nHeight                                   : 720 pixels\r\nDisplay aspect ratio                     : 16:9\r\nFrame rate mode                          : Constant\r\nFrame rate                               : 29.970 (30000/1001) fps\r\nColor space                              : YUV\r\nChroma subsampling                       : 4:2:0\r\nBit depth                                : 8 bits\r\nScan type                                : Progressive\r\nBits/(Pixel*Frame)                       : 0.104\r\nStream size                              : 1.82 GiB (96%)\r\nWriting library                          : Zencoder Video Encoding System\r\nEncoded date                             : UTC 2015-07-08 11:55:41\r\nTagged date                              : UTC 2015-07-08 13:16:23\r\n\r\nAudio\r\nID                                       : 2\r\nFormat                                   : AAC\r\nFormat/Info                              : Advanced Audio Codec\r\nFormat profile                           : LC\r\nCodec ID                                 : 40\r\nDuration                                 : 1h 30mn\r\nBit rate mode                            : Variable\r\nBit rate                                 : 129 Kbps\r\nMaximum bit rate                         : 189 Kbps\r\nChannel(s)                               : 2 channels\r\nChannel positions                        : Front: L R\r\nSampling rate                            : 48.0 KHz\r\nFrame rate                               : 46.875 fps (1024 spf)\r\nCompression mode                         : Lossy\r\nStream size                              : 83.1 MiB (4%)\r\nEncoded date                             : UTC 2015-07-08 11:55:40\r\nTagged date                              : UTC 2015-07-08 13:16:23","torrent":{"xt":"urn:btih:e534e86e54b710c01088886a09bd895cb392b8c7","amp;dn":"The+Barlow+House.2015.WEBDL.RR.mp4","amp;tr":["udp%3A%2F%2Ftracker.leechers-paradise.org%3A6969","udp%3A%2F%2Fzer0day.ch%3A1337","udp%3A%2F%2Fopen.demonii.com%3A1337","udp%3A%2F%2Ftracker.coppersurfer.tk%3A6969","udp%3A%2F%2Fexodus.desync.com%3A6969"],"infoHash":"e534e86e54b710c01088886a09bd895cb392b8c7","infoHashBuffer":{"type":"Buffer","data":[229,52,232,110,84,183,16,192,16,136,136,106,9,189,137,92,179,146,184,199]},"announce":[],"urlList":[]}}